<?xml version="1.0" encoding="UTF-8" standalone="no"?>
<!DOCTYPE svg PUBLIC "-//W3C//DTD SVG 1.1//EN" "http://www.w3.org/Graphics/SVG/1.1/DTD/svg11.dtd">
<svg width="100%" height="100%" viewBox="0 0 1126 1126" version="1.1" xmlns="http://www.w3.org/2000/svg" xmlns:xlink="http://www.w3.org/1999/xlink" xml:space="preserve" xmlns:serif="http://www.serif.com/" style="fill-rule:evenodd;clip-rule:evenodd;stroke-linecap:round;stroke-linejoin:round;stroke-miterlimit:1.5;">
    <g>
        <g>
            <clipPath id="_clip1">
                <circle cx="562.507" cy="562.503" r="562.507"/>
            </clipPath>
            <g clip-path="url(#_clip1)">
                <g transform="matrix(2.33947,0,0,2.33947,-920.86,-528.42)">
                    <circle cx="634.061" cy="466.312" r="240.442" style="fill:rgb(107,107,107);"/>
                </g>
                <path d="M562.507,563L562.507,1502.84L-150.829,1336.56L-269.598,693.721L-251.417,93.081L-251.417,92.584L562.507,562.503" style="fill:rgb(50,50,50);stroke:rgb(73,73,73);stroke-width:20px;"/>
                <path d="M562.507,562.503L562.507,1502.84L562.507,563L1376.43,93.081L1376.43,92.584L1598.05,879.299C1598.05,879.299 1212.05,1563.71 1171.97,1563.71C1131.88,1563.71 562.507,1502.84 562.507,1502.84" style="fill:rgb(64,64,64);stroke:rgb(73,73,73);stroke-width:20px;"/>
                <path d="M-251.417,92.584L466.773,-257.919L1412.48,30.097L1376.43,93.081L562.507,563L-251.417,93.081L-251.417,92.584L562.507,562.503" style="fill:rgb(58,58,58);stroke:rgb(73,73,73);stroke-width:20px;"/>
            </g>
        </g>
    </g>
    <g>
        <path d="M562.507,563L563,279.477" style="fill:none;stroke:rgb(253,246,227);stroke-width:20px;"/>
        <g transform="matrix(0.5,-0.866025,0.866025,0.5,-206.812,768.645)">
            <path d="M562.507,563L563,279.477" style="fill:none;stroke:rgb(253,246,227);stroke-width:20px;"/>
        </g>
        <g transform="matrix(-0.5,-0.866025,0.866025,-0.5,356.681,1331.65)">
            <path d="M562.507,563L563,279.477" style="fill:none;stroke:rgb(253,246,227);stroke-width:20px;"/>
        </g>
        <g transform="matrix(-1,-3.88578e-16,3.88578e-16,-1,1124.77,1126)">
            <path d="M562.507,563L563,279.477" style="fill:none;stroke:rgb(253,246,227);stroke-width:20px;"/>
        </g>
        <g transform="matrix(-0.5,0.866025,-0.866025,-0.5,1331.33,357.355)">
            <path d="M562.507,563L563,279.477" style="fill:none;stroke:rgb(253,246,227);stroke-width:20px;"/>
        </g>
        <g transform="matrix(0.5,0.866025,-0.866025,0.5,768.332,-205.645)">
            <path d="M562.507,563L563,279.477" style="fill:none;stroke:rgb(253,246,227);stroke-width:20px;"/>
        </g>
        <path d="M317.216,704.334L316.722,420.811L562.013,279.477L807.798,420.811L807.798,705.189L562.753,846.523L317.216,704.334Z" style="fill:none;stroke:rgb(253,246,227);stroke-width:20px;"/>
    </g>
    <g>
        <g transform="matrix(1,0,0,1,0.493312,0.830284)">
            <circle cx="562.507" cy="278.647" r="80.146" style="fill:rgb(38,121,213);"/>
        </g>
        <g transform="matrix(-0.5,-0.866025,0.866025,-0.5,357.153,1330.8)">
            <circle cx="562.507" cy="278.647" r="80.146" style="fill:rgb(38,121,213);"/>
        </g>
        <g transform="matrix(-0.5,0.866025,-0.866025,-0.5,1330.37,357.367)">
            <circle cx="562.507" cy="278.647" r="80.146" style="fill:rgb(38,121,213);"/>
        </g>
    </g>
    <g>
        <g transform="matrix(0.5,-0.866025,0.866025,0.5,-205.847,768.633)">
            <circle cx="562.507" cy="278.647" r="80.146" style="fill:rgb(133,194,0);"/>
        </g>
        <g transform="matrix(-1,-3.88578e-16,3.88578e-16,-1,1124.27,1125.17)">
            <circle cx="562.507" cy="278.647" r="80.146" style="fill:rgb(133,194,0);"/>
        </g>
        <g transform="matrix(0.5,0.866025,-0.866025,0.5,767.86,-204.803)">
            <circle cx="562.507" cy="278.647" r="80.146" style="fill:rgb(133,194,0);"/>
        </g>
    </g>
    <g transform="matrix(0.5,-0.866025,0.866025,0.5,39.1967,910.822)">
        <circle cx="562.507" cy="278.647" r="80.146" style="fill:rgb(220,50,47);"/>
    </g>
</svg>
